<?xml version="1.0"?>
<svg xmlns="http://www.w3.org/2000/svg" height="512px" viewBox="0 0 512 512" width="512px" class=""><g><path d="m472 120h20c11.046875 0 20-8.953125 20-20v-80c0-11.046875-8.953125-20-20-20h-80c-11.046875 0-20 8.953125-20 20v20h-272v-20c0-11.046875-8.953125-20-20-20h-80c-11.046875 0-20 8.953125-20 20v80c0 11.046875 8.953125 20 20 20h20v272h-20c-11.046875 0-20 8.953125-20 20v80c0 11.046875 8.953125 20 20 20h80c11.046875 0 20-8.953125 20-20v-20h272v20c0 11.046875 8.953125 20 20 20h80c11.046875 0 20-8.953125 20-20v-80c0-11.046875-8.953125-20-20-20h-80c-11.046875 0-20 8.953125-20 20v20h-50v-90h110c11.046875 0 20-8.953125 20-20 0-1.550781-.191406-3.050781-.527344-4.5.335938-1.449219.527344-2.949219.527344-4.5zm-40 312h40v40h-40zm0-392h40v40h-40zm-20 80h20v50h-90v-90h50v20c0 11.046875 8.953125 20 20 20zm-332 90h90v92h-90zm130 0h92v92h-92zm0-40v-90h92v90zm-170-130h40v40h-40zm60 80c11.046875 0 20-8.953125 20-20v-20h50v90h-90v-50zm-20 352h-40v-40h40zm20-80h-20v-50h90v90h-50v-20c0-11.046875-8.953125-20-20-20zm202 40h-92v-90h92zm40-222h90v92h-90zm0 0" data-original="#000000" class="active-path" data-old_color="#ffffff" fill="#ffffff"/></g> </svg>
