<?xml version="1.0" encoding="utf-8"?>
<!-- Generator: Adobe Illustrator 21.0.0, SVG Export Plug-In . SVG Version: 6.00 Build 0)  -->
<svg version="1.1" id="Layer_1" xmlns="http://www.w3.org/2000/svg" xmlns:xlink="http://www.w3.org/1999/xlink" x="0px" y="0px"
	 viewBox="0 0 80 80" style="enable-background:new 0 0 80 80;" xml:space="preserve">
<style type="text/css">
	.st0{fill:#FFFFFF;}
</style>
<path id="XMLID_23_" class="st0" d="M75.9,20.5l-33-17.8c-1.8-0.9-3.9-0.9-5.6,0L4.4,20.5c-1.9,1-3.1,3-3.1,5.2v47.2
	c0,1.9,0.9,3.6,2.4,4.7c1.5,1.1,3.4,1.5,5.2,0.9l31.2-9.1l31.4,9.1c0.5,0.2,1.1,0.2,1.6,0.2c1.3,0,2.5-0.4,3.5-1.2
	c1.5-1.1,2.4-2.9,2.4-4.7V25.7C79,23.5,77.8,21.5,75.9,20.5z M74.1,72.9c0,0.3-0.1,0.6-0.4,0.8c-0.2,0.1-0.4,0.2-0.6,0.2
	c-0.1,0-0.2,0-0.3,0l-24.3-7.1c0.8-0.4,1.7-0.8,2.4-1.3l21.1,6.2V26.3L40.1,9L8.2,26.3v45.3l21.7-6.4L44.4,61
	c1.2-0.4,2.3-0.9,3.3-1.6l0,0c3.2-2.2,5.2-5.9,5.2-10c0-6.8-5.5-12.3-12.3-12.3c-6.8,0-12.3,5.5-12.3,12.3c0,3.5,1.5,6.9,4.2,9.2
	c0.2,0.2,0.3,0.4,0.3,0.6v0c0,0,0,0,0,0l-1.9,0.5c-2.9-2.7-4.6-6.5-4.6-10.4c0-7.8,6.4-14.2,14.2-14.2c7.8,0,14.2,6.4,14.2,14.2
	c0,4.2-1.8,8-4.9,10.7c-1.4,1.2-3.1,2.2-5,2.8l-1.4,0.4l-11.3,3.3c0,0,0,0,0,0L7.5,73.9c-0.3,0.1-0.6,0-0.9-0.2
	c-0.2-0.2-0.4-0.5-0.4-0.8V25.7c0-0.4,0.2-0.7,0.5-0.9L39.6,7c0.3-0.2,0.6-0.2,0.9,0l33,17.8c0.3,0.2,0.5,0.5,0.5,0.9V72.9z
	 M40.6,30.3c-10.6,0-19.1,8.6-19.1,19.1c0,4.5,1.6,8.7,4.2,12l-12.5,3.7V29.2l26.9-14.6l27.1,14.6v35.9l-11.9-3.5
	c2.8-3.3,4.4-7.6,4.4-12.2C59.8,38.8,51.2,30.3,40.6,30.3z M33.2,49.4c0-4.1,3.3-7.4,7.4-7.4c4.1,0,7.4,3.3,7.4,7.4
	s-3.3,7.4-7.4,7.4C36.5,56.8,33.2,53.5,33.2,49.4z M38.4,57.7c0.1,0,0.3-0.1,0.4-0.1C38.7,57.6,38.6,57.6,38.4,57.7l-1.8,0.5
	L38.4,57.7z"/>
</svg>
